<svg height="512" viewBox="0 0 60 60" width="512" xmlns="http://www.w3.org/2000/svg"><g id="003---Crab" fill="none"><g id="Icons" transform="translate(1 1)"><path id="Shape" d="m55.66 30.55c-11.44 18.73-10.5 17.4-11 17.56-16.76 5.24-15.52 4.89-15.96 4.8-16.64-5.21-15.62-4.78-15.9-5.23l-10.46-17.13c-.21111331-.3290494-.21111331-.7509506 0-1.08l10.33-15c.1885255-.2717806.4992449-.4327557.83-.43h30.97c.3307551-.0027557.6414745.1582194.83.43l10.33 15c.2203495.3231541.2320706.745112.03 1.08z" fill="#c81e1e"/><path id="Shape" d="m52.66 30.55c-11.44 18.73-10.5 17.4-11 17.56l-14.16 4.42-14.14-4.42c-.53-.16.39 1.12-11-17.56-.21111331-.3290494-.21111331-.7509506 0-1.08l10.33-15c.1885255-.2717806.4992449-.4327557.83-.43h27.95c.3307551-.0027557.6414745.1582194.83.43l10.33 15c.2203495.3231541.2320706.745112.03 1.08z" fill="#f44335"/><path id="Shape" d="m3.17 31.91-3.17 11.09 11.05 1.81z" fill="#c81e1e"/><path id="Shape" d="m0 43 9 15 2.05-13.19z" fill="#f44335"/><path id="Shape" d="m11.81 15.73-11.81-2.73 3.65 14.6z" fill="#c81e1e"/><path id="Shape" d="m8.14 14.88 1.86-14.88-10 13z" fill="#f44335"/><path id="Shape" d="m9.38 5h5.62l-6.3 5.4z" fill="#c03a2b"/><g fill="#c81e1e"><path id="Shape" d="m54.83 31.91 3.17 11.09-11.05 1.81z"/><path id="Shape" d="m58 43-9 15-2.05-13.19z"/><path id="Shape" d="m46.19 15.73 11.81-2.73-3.65 14.6z"/><path id="Shape" d="m58 13-8.14 1.88-1.86-14.88z"/></g><path id="Shape" d="m54.67 43.54-6.29 10.49-1.43-9.22z" fill="#f44335"/><path id="Shape" d="m55 13-5.22 1.21-1.19-9.55z" fill="#f44335"/><path id="Shape" d="m49.3 10.4-6.3-5.4h5.63z" fill="#c03a2b"/><path id="Shape" d="m18 14 5-6v6z" fill="#f44335"/><path id="Shape" d="m40 14-5-6v6z" fill="#f44335"/></g><g id="Layer_10" fill="#000" transform="translate(-1 -1)"><path id="Shape" d="m1.15 45.51 9 15c.212406.3637881.6300138.5554543 1.0443325.4793092.4143187-.076145.7364891-.4037705.8056675-.8193092l1.8-10.25c.39.65.49.9.92 1 17.15 5.36 16.07 5 16.3 5s-.82.3 16.3-5c.42-.13.52-.37.92-1l1.76 10.25c.0737469.4094727.3933249.7305016.8024593.8061025.4091344.075601.8223332-.1100236 1.0375407-.4661025l9-15c.1384543-.2354336.1745851-.5172537.1-.78l-3.03-10.67.94-1.54c.2154186-.3314032.2154186-.7585968 0-1.09l-1.39-2 3.54-14.19c.0694534-.2928206.0033401-.6013494-.18-.84l-10-13c-.2607502-.39465846-.7623562-.55263793-1.2022059-.37863148-.4398496.17400645-.6976168.63239733-.6177941 1.09863148l.49 3.88h-4.49c-.4186996-.00003221-.7930899.26078432-.9381468.65355375-.1450569.39276944-.0300649.83432374.2881468 1.10644625l6 5.15.4 3.2-2.13.49-.81-1.17c-.1844894-.2659854-.4863177-.4262152-.81-.43h-4.53l-4.7-5.64c-.2691834-.32485613-.7132874-.44582865-1.110038-.30237081-.3967506.14345785-.6607882.52048159-.659962.94237081v5h-10v-5c.0008262-.42188922-.2632114-.79891296-.659962-.94237081-.3967506-.14345784-.8408546-.02248532-1.110038.30237081l-4.7 5.64h-4.53c-.3272236.0005385-.6334827.1611378-.82.43l-.81 1.17-2.13-.49.4-3.2 6-5.15c.3168592-.27092488.4323977-.7099981.2899273-1.10179173-.1424704-.39179364-.5130542-.65409514-.9299273-.65820827h-4.49l.49-3.88c.0578559-.44982436-.1942546-.88226195-.6142043-1.05352635-.4199497-.17126441-.9025748-.03846758-1.1757957.32352635l-10 13c-.18638269.241105-.25265142.5540407-.18.85l3.54 14.17-1.39 2c-.21541861.3314032-.21541861.7585968 0 1.09l.94 1.54-3.12 10.69c-.06770023.2693919-.01278852.5549328.15.78zm46.55-37.51h2l.3 2zm-35.44 0h2l-2.26 2zm-1.78 49.19-6.48-10.85 8.17 1.33zm41 0-1.66-9.52 8.18-1.33zm7.21-13-7.79 1.28 5.56-9.09zm-.47-29.81-5.55 1.28-1.22-10.14zm.37 2-2.67 10.83-6.07-8.84zm-20.59-3.62 1.86 2.24h-1.86zm-14 0v2.24h-1.86zm-8.47 4.24h30.94l10.34 15-10.47 17.16-14.34 4.48v-11.64c0-.5522847-.4477153-1-1-1s-1 .4477153-1 1v11.64l-14.34-4.48-10.47-17.16zm-5-11.48-1.24 10.14-5.55-1.28zm-7.16 10.82 8.78 2-6.07 8.87zm2.13 20 5.56 9.09-7.79-1.24z"/><path id="Shape" d="m31 39c.5522847 0 1-.4477153 1-1v-1c0-.5522847-.4477153-1-1-1s-1 .4477153-1 1v1c0 .5522847.4477153 1 1 1z"/></g></g></svg>