<svg height="512" viewBox="0 0 38 60" width="512" xmlns="http://www.w3.org/2000/svg"><g id="004---Flower" fill="none"><g id="Icons" transform="translate(1 1)"><path id="Shape" d="m32 53-19.57-14.06 3.57-16.94h12z" fill="#007900"/><path id="Shape" d="m28.69 50.62-16.26-11.68 3.57-16.94h9z" fill="#008a00"/><path id="Shape" d="m27.98 5.24-5.98 1.68-5.99-1.68 5.99-5.24z" fill="#ff9801"/><path id="Shape" d="m22 6.92-14-3.92 8 19h12z" fill="#ffdc00"/><path id="Shape" d="m32 53v5h-24l-8-28z" fill="#549414"/><path id="Shape" d="m29 50.84v7.16h-21l-8-28z" fill="#60a917"/><path id="Shape" d="m36 3-8 19h-12l-5-12z" fill="#fdd834"/><path id="Shape" d="m32.6 3.95-7.6 18.05h-9l-5-12z" fill="#ffeb3a"/></g><path id="Shape" d="m9 59.27c.12451058.4452375.53799617.747082 1 .73h24c.5522847 0 1-.4477153 1-1 0-5.22 0-4.91 0-5.09-.24-2.59 1.15 8.87-4-30.77l7.92-18.75c.1713331-.35720264.1156411-.7818719-.142003-1.08281754-.2576442-.30094564-.6686572-.42141926-1.047997-.30718246l-7.49 2.13-5.58-4.88c-.3775063-.33164587-.9424937-.33164587-1.32 0l-5.58 4.88-7.49-2.13c-.36917599-.10257655-.7645058.01481194-1.01787298.3022453-.25336718.28743335-.32021928.69436887-.17212702 1.0477547l7.92 18.75-3.23 15.13-11.19-8c-.33796695-.2611357-.80447681-.2788045-1.16122797-.043981-.35675117.2348236-.52498797.6703004-.41877203 1.083981zm15-56.94 3.94 3.45-3.94 1.1-3.94-1.1zm-12.27 3.19 8.56 2.4-6.76 1.89zm2.63 6.14 21.91-6.14-6.93 16.48h-10.67zm4.45 12.34h10.31l3.59 27.84-17.17-12.34zm14.19 30.51v3.49h-22.25l-7-24.51z" fill="#000" transform="translate(-1)"/></g></svg>