<svg height="512" viewBox="0 0 61 61" width="512" xmlns="http://www.w3.org/2000/svg"><g id="005---Frog" fill="none"><g id="Icons" transform="translate(2 1)"><path id="Shape" d="m57 45h-56c1.48-3.68 1.12-2.79 1.6-4h7.4c4.18-8.36.36-.23 19-41 18.45 40.37 15 33 19 41h7.4z" fill="#90ac00"/><path id="Shape" d="m54 45h-53c1.48-3.68 1.12-2.79 1.6-4h7.4c3.84-7.69.7-1 17.5-37.72 16.81 36.79 13.65 30.03 17.5 37.72h7.4z" fill="#a4c400"/><path id="Shape" d="m13 35-3 6-5-6z" fill="#008a00"/><path id="Shape" d="m53 35-5 6-3-6z" fill="#008a00"/><g fill="#60a917"><path id="Shape" d="m55.4 41h-7.4l5-6z"/><path id="Shape" d="m10 41h-7.4l2.4-6z"/><path id="Shape" d="m29 0-14 30.55-6-7.55c8.64-9.93 4.21-4.83 20-23z"/></g><path id="Shape" d="m15.82 15.16-6.82 7.84-1-20z" fill="#008a00"/><path id="Shape" d="m49 23-6 7.55c-1.75-3.76-8-17.42-14-30.55z" fill="#549414"/><path id="Shape" d="m46 23-4.13 5.16-9.55-20.89z" fill="#60a917"/><path id="Shape" d="m50 3-1 20-6.82-7.84c5.48-8.52 3.73-5.79 7.82-12.16z" fill="#007900"/><path id="Shape" d="m46.75 8.06-.59 11.68-3.98-4.58z" fill="#008a00"/><path id="Shape" d="m13 45-3 10-9-10z" fill="#60a917"/><path id="Shape" d="m10 55-10 3 5.4-8.11z" fill="#008a00"/><path id="Shape" d="m57 45-9 10-3-10z" fill="#60a917"/><path id="Shape" d="m58 58-10-3c3.46-3.83 2.44-2.69 4.6-5.11z" fill="#007900"/><path id="Shape" d="m54.25 56.88-6.25-1.88 2.88-3.19z" fill="#008a00"/></g><path id="Shape" d="m2.29 60 10-3c.3216818-.0966393.5733607-.3483182.67-.67l2.78-9.33h30.52l2.74 9.29c.0994909.3178459.350694.5652997.67.66l10 3c.4031673.1203344.8385335-.0245599 1.089185-.3624919.2506516-.337932.2629688-.796611.030815-1.1475081l-5-7.47 3.88-4.31c.2409348-.2737532.3137437-.6569579.19-1-5.84-14.61 1.7 4.22-4-10-.1322081-.3697776-.4686089-.6279457-.86-.66h-7.36l-1.51-3.31c6.09-7.62 5.87-7.16 5.87-7.64l1-20c.022329-.45236192-.2621617-.86325262-.693445-1.00154453-.4312832-.13829192-.9016655.03054713-1.146555.41154453l-7.1 11-12.31-14.12c-.189833-.21525044-.4629994-.33856217-.75-.33856217s-.560167.12331173-.75.33856217l-12.31 14.16-7.1-11c-.2412894-.37359197-.7003115-.54293852-1.12642011-.41556908-.42610865.12736943-.71689614.52084382-.71357989.96556908l1 20c0 .48-.26 0 5.87 7.64l-1.51 3.31h-7.36c-.40980385-.0003967-.7783727.249279-.93.63l-4 10c-.12374367.3430421-.05093478.7262468.19 1l3.88 4.37-5 7.47c-.26023578.3554745-.25718409.8393775.00751435 1.1915415.26469845.352164.72867914.4896171 1.14248565.3384585zm55.34-2.71-5.83-1.79 2.68-3zm-7.18-3.29-2.11-7h8.41zm5.47-13h-3.78l2.55-3.07zm-3.06-4-2.65 3.19-1.59-3.19zm-2-29.31-.68 13.78-4.7-5.4zm-1.16 16.31-4.5 5.62-10.41-22.74zm-38.51-16.31 5.38 8.38-4.7 5.4zm1.11 16.31 14.91-17.12-10.41 22.77zm1.08 13-1.59 3.19-2.65-3.19zm-6.07.93 2.56 3.07h-3.79zm-2.03 5.07h23.72c.5522847 0 1-.4477153 1-1s-.4477153-1-1-1h-15.38l17.38-37.59 17.38 37.59h-15.38c-.5522847 0-1 .4477153-1 1s.4477153 1 1 1h23.72l.8 2h-53zm0 4h8.41l-2.11 7zm2.27 5.52 2.68 3-5.86 1.73z" fill="#000"/></g></svg>