<svg height="512" viewBox="0 0 51 60" width="512" xmlns="http://www.w3.org/2000/svg"><g id="008---Fox" fill="none"><g id="Icons" transform="translate(1 1)"><path id="Shape" d="m47 38-7.65 17h-20.35c-.5522847 0-1-.4477153-1-1v-20l9.25-9.83z" fill="#d84315"/><path id="Shape" d="m44 38-7.65 17h-17.35c-.5522847 0-1-.4477153-1-1v-20l8.06-8.56z" fill="#ff5722"/><path id="Shape" d="m34 17-16 17-16-17 7-7h18z" fill="#f57c00"/><path id="Shape" d="m31 17-14.5 15.41-14.5-15.41 7-7h15z" fill="#ff9801"/><path id="Shape" d="m2 17-2-17 9 10z" fill="#f5f5f5"/><path id="Shape" d="m36 0-2 17-7-7z" fill="#cfd8dc"/><path id="Shape" d="m32.55 3.83-1.23 10.49-4.32-4.32z" fill="#f5f5f5"/><path id="Shape" d="m49 55-11 3 9-20z" fill="#f57c00"/><path id="Shape" d="m46 55-7.58 2.07 6.2-13.79z" fill="#ff9801"/><path id="Shape" d="m20.65 31.18-2.65 2.82-2.65-2.82c1.51-2.91 3.79-2.91 5.3 0z" fill="#3f51b5"/></g><g id="Layer_10" fill="#000" transform="translate(-1 -1)"><path id="Shape" d="m3 19.11c.06.52-1.07-.82 16 17.29v19.6c0 1.1045695.8954305 2 2 2h18.8l-.71 1.59c-.138945.3090949-.111891.6675277.0718755.9522648s.4992368.4570288.8381245.4577352c.2 0-.57.19 11.26-3 .4978266-.1277043.8177921-.6119763.74-1.12-2.19-18.69-2-17.1-2-17.2 0-.35.25-.06-19.18-13.67 6.46-6.86 6.15-6.4 6.21-6.9l2-17c.0714594-.44868473-.1685356-.88915185-.5842954-1.07236806-.4157599-.1832162-.9027791-.06312821-1.1857046.29236806l-8.71 9.67h-17.1l-8.71-9.67c-.29110601-.32809092-.76203574-.42818625-1.16141806-.2468575-.39938232.18132876-.6339847.60175189-.57858194 1.0368575l2 17zm17 15.43-1.41-1.54c.94-1.3333333 1.88-1.3333333 2.82 0zm29.91 21.72-8.13 2.22 6.65-14.77zm-2.16-15.92-7.05 15.66h-19.7v-19.6l8.39-8.91zm-11.11-35.34-1.39 11.83-4.87-4.83zm-8 8 6 6-11.83 12.56c-1.62-2.07-4-2.1-5.62 0l-11.8-12.56 6-6zm-19-1-4.89 4.83-1.39-11.83z"/><path id="Shape" d="m11.55 19.89c4.32 2.16 4.12 2.11 4.45 2.11.4608398-.0027311.8601381-.3200462.96688-.7683619.1067418-.4483157-.1067173-.9115255-.51688-1.1216381l-4-2c-.3211808-.1932607-.7234705-.1906728-1.0421383.0067041-.3186678.1973768-.5001928.5563928-.4702434.9300368s.2663431.6991617.6123817.8432591z"/><path id="Shape" d="m24 22c.34 0 .13.05 4.45-2.11.3460386-.1440974.5824323-.4696151.6123817-.8432591s-.1515756-.73266-.4702434-.9300368c-.3186678-.1973769-.7209575-.1999648-1.0421383-.0067041l-4 2c-.4101627.2101126-.6236218.6733224-.51688 1.1216381.1067419.4483157.5060402.7656308.96688.7683619z"/></g></g></svg>