<svg height="512" viewBox="0 0 38 60" width="512" xmlns="http://www.w3.org/2000/svg"><g id="009---Fox" fill="none"><g id="Icons" transform="translate(0 1)"><path id="Shape" d="m35 29-12.41 24h-20.59c-.30427197-.0014028-.59135261-.1412626-.78-.38l19.78-33.62z" fill="#d84315"/><path id="Shape" d="m32 29-12.41 24h-17.59c-.30427197-.0014028-.59135261-.1412626-.78-.38l18.89-32.11z" fill="#ff5722"/><path id="Shape" d="m12 12-11 3 2-15z" fill="#ff9801"/><path id="Shape" d="m26 4-5 15-9-7z" fill="#f57c00"/><path id="Shape" d="m22.29 6.12-3.67 11.03-6.62-5.15z" fill="#ff9801"/><path id="Shape" d="m21 19-19.78 33.62c-.32-.39-.22 1.92-.22-37.62l7 16z" fill="#f5f5f5"/><path id="Shape" d="m21 19-13 12-7-16 11-3z" fill="#ff9801"/><path id="Shape" d="m37 53-17 5 15-29z" fill="#f57c00"/><path id="Shape" d="m34 53-13.46 3.96 11.88-22.96z" fill="#ff9801"/></g><path id="Shape" d="m2 56h18.94l-1.83 3.54c-.2117327.3580435-.1797123.8097676.0804093 1.1343638.2601216.3245961.6940162.4542704 1.0895907.3256362l17-5c.4412591-.1283061.7382755-.540829.72-1l-2-24c-.0280796-.2950295-.1855756-.5624065-.43-.73l-13.39-9.65 4.82-14.3c.162578-.40993922.0374242-.8779825-.3080603-1.15206686s-.8297267-.28949523-1.1919397-.03793314l-13.23 7.56-8.47-11.29c-.24232886-.33144299-.66262901-.48108201-1.05989197-.37735224-.39726297.10372978-.6907528.43974729-.74010803.84735224-2 15.45-2 14.99-2 15.13v37c0 1.1045695.8954305 2 2 2zm33.94-1.73-13.94 4.11 12.29-23.83zm-2.23-23-11.71 22.73h-19.25l18.56-31.55zm-9.49-23.1-3.72 11.17-6.71-5.21zm-4.77 12.9-11.1 10.24-6-13.65 9.4-2.56zm-15.78-16.51 6.65 8.86-8.13 2.22zm-1.67 17.22 5.08 11.62c.12992944.2977279.39638017.513793.71452774.5794109.31814757.065618.64834432-.0273885.88547226-.2494109l8-7.41-14.68 25z" fill="#000" transform="translate(0 -1)"/></g></svg>