<svg height="512" viewBox="0 0 60 60" width="512" xmlns="http://www.w3.org/2000/svg"><g id="011---Cat" fill="none"><g id="Icons" transform="translate(1 1)"><path id="Shape" d="m10.97 7.05-7.12 10.27-3.85-17.32z" fill="#a0522d"/><path id="Shape" d="m38 0-3.85 17.32-7.12-10.27z" fill="#783e22"/><path id="Shape" d="m34.5 2.25-2.62 11.79-4.85-6.99z" fill="#a0522d"/><path id="Shape" d="m58 33-10 25-2-10.18c0-.1-.32.33 12-14.82z" fill="#91562d"/><path id="Shape" d="m48 58.0000084h-20.91c.5189652.0020973.953297-.3931446 1-.9100084 3.22-35.36 2.77-30 2.77-30.46l2-2.58 11.14 13.95z" fill="#624421"/><path id="Shape" d="m45 58.0000084h-17.91c.5189652.0020973.953297-.3931446 1-.9100084 3.22-35.36 2.77-30 2.77-30.46l.52-.67 9.62 12.04z" fill="#825a2c"/><path id="Shape" d="m30.85 26.64-2.77 30.45c-.046703.5168638-.4810348.9121057-1 .91h-16.17c-.5189652.0021057-.95329702-.3931362-1-.91l-2.76-30.45 3.85 5c.1903565.2285401.4725678.360483.77.36h14.46c.2974322.000483.5796435-.1314599.77-.36z" fill="#91562d"/><path id="Shape" d="m35.51 20.58-8.51 11.06c-.1903565.2285401-.4725678.360483-.77.36h-14.46c-.2974322.000483-.5796435-.1314599-.77-.36l-8.51-11.06c-.28984292-.3439419-.31439478-.8390711-.06-1.21l8.57-12.37h16l8.57 12.37c.2543948.3709289.2298429.8660581-.06 1.21z" fill="#783e22"/><path id="Shape" d="m32.51 20.58-8.51 11.06c-.1903565.2285401-.4725678.360483-.77.36h-11.46c-.2974322.000483-.5796435-.1314599-.77-.36l-8.51-11.06c-.28984292-.3439419-.31439478-.8390711-.06-1.21l8.57-12.37h13l8.57 12.37c.2543948.3709289.2298429.8660581-.06 1.21z" fill="#a0522d"/><path id="Shape" d="m18.2 26.52-1-1.6c-.49-.79 0-1.92.8-1.92h2c.82 0 1.29 1.13.8 1.92l-1 1.6c-.1591106.293491-.466154.476295-.8.476295s-.6408894-.182804-.8-.476295z" fill="#ef314c"/></g><g id="Layer_10" fill="#000" transform="translate(-1 -1)"><path id="Shape" d="m19.35 29.05c.3422456.5869623.9705467.9479189 1.65.9479189s1.3077544-.3609566 1.65-.9479189l1-1.6c.4382976-.6521265.4992323-1.487359.1602241-2.1961942-.3390081-.7088351-1.0274527-1.1856688-1.8102241-1.2538058h-2c-.7827714.068137-1.471216.5449707-1.8102241 1.2538058-.3390082.7088352-.2780735 1.5440677.1602241 2.1961942zm.65-3.05h1.93c.0826429.1241731.0826429.2858269 0 .41l-.93 1.5-.95-1.52c-.11-.17-.05-.39-.05-.39z"/><path id="Shape" d="m59.22 34.37-10.69 13.16c-1.68-8.39-1.53-7.88-1.75-8.15l-10.67-13.38 2.17-2.82c.5715914-.6883007.616513-1.6724912.11-2.41l-1.17-1.69 3.78-16.86c.098565-.40336461-.0623965-.82567298-.4044358-1.06110267-.3420394-.23542969-.7939827-.23499084-1.1355642.00110267l-10.75 6.84h-15.42l-10.75-6.84c-.3415815-.23609351-.79352481-.23653236-1.13556418-.00110267-.34203936.23542969-.50300082.65773806-.40443582 1.06110267l3.76 16.9-1.15 1.69c-.50000518.7244901-.46752683 1.690721.08 2.38l4.49 5.81 2.74 30.17c.0885169 1.0376868.9585515 1.8337685 2 1.83h37.08c.2990833-.0019778.58158-.137723.77-.37.3-.35 1.15-2.7 10.16-25.26.1901866-.4613989.0110768-.9923883-.4197254-1.2443195-.4308023-.2519311-.9814022-.1476725-1.2902746.2443195zm-20.72-30.23-2.83 12.74-5.26-7.59zm-35 0 8.09 5.15-5.26 7.59zm1.75 17.8c4.55-6.56 3.09-4.45 8.27-11.94h15l8.25 12-8.54 11h-14.44zm16.75 37.06v-14c0-.5522847-.4477153-1-1-1s-1 .4477153-1 1v14h-7.08l-2.46-27 1.77 2.3c.380713.4570802.9451355.7209661 1.54.72h14.46c.6068554-.0003792 1.1807154-.2762735 1.56-.75l1.75-2.27-2.45 27zm9.09 0 2.73-30 1-1.35 10.25 12.78 3.71 18.57zm19.23-2.5-1.32-6.43 7.6-9.34z"/><path id="Shape" d="m21 39c-.5522847 0-1 .4477153-1 1v1c0 .5522847.4477153 1 1 1s1-.4477153 1-1v-1c0-.5522847-.4477153-1-1-1z"/></g></g></svg>