<svg height="512" viewBox="0 0 60 60" width="512" xmlns="http://www.w3.org/2000/svg"><g id="015---Pinwheel" fill="none"><g id="Icons" transform="translate(1 1)"><path id="Shape" d="m29 29-9.17-9.17c-.7511082-.750273-1.1731466-1.768363-1.1731466-2.83s.4220384-2.079727 1.1731466-2.83l11.83-11.83c1.4991255-1.49745915 3.5310945-2.33901799 5.65-2.34h20.69z" fill="#9d27b0"/><path id="Shape" d="m58 37.31v.69c0-4.9705627-4.0294373-9-9-9h-20l9.17-9.17c.750273-.7511082 1.768363-1.1731466 2.83-1.1731466s2.079727.4220384 2.83 1.1731466l11.83 11.83c1.4974592 1.4991255 2.339018 3.5310945 2.34 5.65z" fill="#6a1b9a"/><g fill="#9d27b0"><path id="Shape" d="m49 29h-20c9-9 9.24-9.25 9.34-9.32.9395919.0779026 1.8214677.4851946 2.49 1.15z"/><path id="Shape" d="m29 29 9.17 9.17c.7511082.750273 1.1731466 1.768363 1.1731466 2.83s-.4220384 2.079727-1.1731466 2.83l-11.83 11.83c-1.4991255 1.4974592-3.5310945 2.339018-5.65 2.34h-20.69z"/><path id="Shape" d="m29 29-9.17 9.17c-.750273.7511082-1.768363 1.1731466-2.83 1.1731466s-2.079727-.4220384-2.83-1.1731466l-11.83-11.83c-1.49745915-1.4991255-2.33901799-3.5310945-2.34-5.65v-20.69z"/></g><path id="Shape" d="m29 29v20c0 4.9705627-4.0294373 9-9 9h-20z" fill="#673ab7"/><path id="Shape" d="m29 29h-20c-4.97056275 0-9-4.0294373-9-9v-20z" fill="#673ab7"/><path id="Shape" d="m58 0-29 29v-20c0-4.97056275 4.0294373-9 9-9z" fill="#4527a0"/><path id="Shape" d="m54 0-25 25v-16c0-4.97056275 4.0294373-9 9-9z" fill="#673ab7"/><path id="Shape" d="m58 38v20l-29-29h20c4.9705627 0 9 4.0294373 9 9z" fill="#4527a0"/><path id="Shape" d="m55 38v17l-26-26h17c4.9705627 0 9 4.0294373 9 9z" fill="#673ab7"/></g><path id="Shape" d="m46.54 21.12c-.7726484-.7639364-1.7731184-1.2553954-2.85-1.4l17-17c.2931106-.28250905.3857076-.71450349.2341382-1.09232869s-.5170478-.62605682-.9241382-.62767131h-20.69c-2.3701294.00876393-4.6397794.95834806-6.31 2.64l-11.88 11.82c-.7645397.7710086-1.2531577 1.7728513-1.39 2.85l-17-17c-.28134378-.3005265-.71811008-.39793094-1.10048641-.24542246-.38237634.15250848-.6322207.52376341-.62951359.93542246v20.69c-.00453668 2.3874653.94606838 4.6775593 2.64 6.36l11.82 11.83c.7710086.7645397 1.7728513 1.2531577 2.85 1.39l-17 17c-.3005265.2813438-.39793094.7181101-.24542246 1.1004864.15250848.3823764.52376341.6322207.93542246.6295136h20.69c2.3874653.0045367 4.6775593-.9460684 6.36-2.64l11.83-11.82c.7645397-.7710086 1.2531577-1.7728513 1.39-2.85l17 17c.2813438.3005265.7181101.3979309 1.1004864.2454225.3823764-.1525085.6322207-.5237635.6295136-.9354225v-20.69c-.0087639-2.3701294-.9583481-4.6397794-2.64-6.31zm-1.42 1.42 7.63 7.62c-1.27-.22-.31-.16-19.34-.16l7.47-7.46c1.1712702-1.1698135 3.0687298-1.1698135 4.24 0zm-13.12-11.54c0-4.418278 3.581722-8 8-8h17.59l-25.59 25.59zm-29 11v-17.59l25.59 25.59h-17.59c-4.418278 0-8-3.581722-8-8zm13.88 17.46-7.63-7.62c1.27.22.26.16 19.34.16l-7.47 7.46c-1.1712702 1.1698135-3.0687298 1.1698135-4.24 0zm13.12 11.54c0 4.418278-3.581722 8-8 8h-17.59l25.59-25.59zm0-22.41-7.46-7.47c-1.1698135-1.1712702-1.1698135-3.0687298 0-4.24l7.62-7.63c-.22 1.27-.16.26-.16 19.34zm9.46 16.53-7.62 7.63c.22-1.27.16-.26.16-19.34l7.46 7.47c1.1698135 1.1712702 1.1698135 3.0687298 0 4.24zm19.54 12.47-25.59-25.59h17.59c4.418278 0 8 3.581722 8 8z" fill="#000" transform="translate(-1 -1)"/></g></svg>