<svg height="512" viewBox="0 0 52 60" width="512" xmlns="http://www.w3.org/2000/svg"><g id="016---Fish" fill="none"><g id="Icons" transform="translate(1 1)"><path id="Shape" d="m50 50v-42l-12.5 12.5-9-9 11.5-11.5h-15l-25 25v8l25 25h15l-11.5-11.5 9-9z" fill="#f29c1f"/><path id="Shape" d="m46 29-21 21h-8l-17-17v-8l17-17h8z" fill="#f57c00"/><path id="Shape" d="m42 29-21 21h-4l-17-17v-8l17-17h4z" fill="#ff9801"/><path id="Shape" d="m23 2v6h-6z" fill="#ff9801"/><path id="Shape" d="m40 0-11.5 11.5-3.5-3.5h-2v-6l2-2z" fill="#d84315"/><path id="Shape" d="m40 58h-15l-2-2v-6h2l3.5-3.5z" fill="#d84315"/><path id="Shape" d="m36 0-9.5 9.5-1.5-1.5h-2v-6l2-2z" fill="#ff5722"/><path id="Shape" d="m36 58h-11l-2-2v-6h2l1.5-1.5z" fill="#ff5722"/><path id="Shape" d="m23 50v6l-6-6z" fill="#ff9801"/><path id="Shape" d="m50 8v42l-12.5-12.5 8.5-8.5-8.5-8.5z" fill="#d84315"/><path id="Shape" d="m47 11v36l-9.5-9.5 8.5-8.5-8.5-8.5z" fill="#ff5722"/></g><path id="Shape" d="m41 1h-15c-.62 0 1.37-1.78-25.71 25.29-.18718651.1887188-.29153676.444197-.29.71v8c-.00153676.265803.10281349.5212812.29.71l25 25c.1887188.1871865.444197.2915368.71.29h15c.4062651.0023626.77358-.2413038.929371-.6165185.1557909-.3752147.0690889-.807391-.219371-1.0934815l-10.8-10.79 7.59-7.59 11.79 11.8c.2860905.2884599.7182668.3751619 1.0934815.219371.3752147-.155791.6188811-.5231059.6165185-.929371v-42c.0023626-.40626507-.2413038-.77358004-.6165185-.92937095s-.807391-.069089-1.0934815.21937095l-11.79 11.8-7.59-7.59 10.8-10.79c.2884599-.28609046.3751619-.71826679.219371-1.09348151-.155791-.37521471-.5231059-.61888111-.929371-.61651849zm-18 5.41v2.59h-2.59zm0 49.18-2.59-2.59h2.59zm15.59 3.41h-12.18l-1.41-1.41v-4.59c.91 0 1.33.08 1.71-.29l2.79-2.8zm11.41-46.59v37.18l-10.09-10.09 7.8-7.79c.1893127-.1877666.2957983-.4433625.2957983-.71s-.1064856-.5222334-.2957983-.71l-7.8-7.79zm-4.41 18.59-20 20h-7.18l-16.41-16.41v-7.18l16.41-16.41h7.18zm-16.09-18.91-2.79-2.8c-.36-.35-.64-.29-1.71-.29v-4.59l1.41-1.41h12.18z" fill="#000" transform="translate(0 -1)"/></g></svg>