<svg height="512" viewBox="0 0 60 56" width="512" xmlns="http://www.w3.org/2000/svg"><g id="019---Elephant" fill="none"><g id="Icons" transform="translate(1 1)"><path id="Shape" d="m4.46 37.22-4.46 1.78v4h6z" fill="#607d8b"/><path id="Shape" d="m58 41h-4.4l2.4-12z" fill="#607d8b"/><path id="Shape" d="m56 29-4.84 24.2c-.0964736.4731232-.5172392.8097357-1 .8h-10.52c-.390571.0009665-.7459609-.2255458-.91-.58l-2.73-5.88 1.85-11.69c.0853339-.5419035-.0556693-1.0950698-.39-1.53l-5-6.49 6.21-7.46c.1974161-.2318924.2784011-.5411078.22-.84l-1.18-5.92z" fill="#37474f"/><path id="Shape" d="m53 29-4.84 24.2c-.0964736.4731232-.5172392.8097357-1 .8h-7.52c-.390571.0009665-.7459609-.2255458-.91-.58l-2.73-5.88 1.85-11.69c.0853339-.5419035-.0556693-1.0950698-.39-1.53l-5-6.49 6.21-7.46c.1974161-.2318924.2784011-.5411078.22-.84l-.58-2.87z" fill="#607d8b"/><path id="Shape" d="m12 40-3 3h-3l-4-15 7.57-.95z" fill="#7f8e94"/><path id="Shape" d="m37.87 35.85-2.74 17.31c-.0792284.4890578-.5046072.846376-1 .84h-11.2c-.5224937.0016745-.958203-.3991781-1-.92l-1.85-25.95c2.78 1.53 6.08 3.33 8.2 4.48.4203667.2297298.944604.1290763 1.25-.24l2.95-3.54 5 6.49c.3343307.4349302.4753339.9880965.39 1.53z" fill="#7f8e94"/><path id="Shape" d="m38.91 19.53c.0584011.2988922-.0225839.6081076-.22.84l-9.16 11c-.305396.3690763-.8296333.4697298-1.25.24l-10.28-5.61c-2.18.26-.9.11-16 2 .29-1.86 2.65-16.71 2.94-18.6.0395971-.2542819.17570115-.48350977.38-.64 20.79-9.76 9.61-4.53 14.34-6.76l5.68.86c.2127685.07977275.4472315.07977275.66 0 7.47-2.25 5.61-1.85 8-2.63.2670857-.07172359.5519487-.02964016.7868861.11624838.2349374.14588855.3989705.38255512.4531139.65375162z" fill="#9e9e9e"/><path id="Shape" d="m35.21 1.05c-.0548412-.26453378-.2143816-.4956236-.442304-.64066514s-.5048326-.19169301-.767696-.12933486l-1.83.61c.12.29-.31-1.71 3.77 18.64.0584011.2988922-.0225839.6081076-.22.84l-8.78 10.51 1.34.73c.4203667.2297298.944604.1290763 1.25-.24l9.16-11c.1974161-.2318924.2784011-.5411078.22-.84z" fill="#707070"/></g><path id="Shape" d="m1 45h9c.265803.0015368.5212812-.1028135.71-.29l3-3c.2250429-.22567.3290412-.5450934.28-.86l-1.84-12 6.65-.85 1.25.68c-.09.3-.19-1.39 1.88 25.44.0786372 1.0455986.9514527 1.8529529 2 1.85h11.22c.9940267.0120028 1.8459871-.7079037 2-1.69l.34-2.28 1.33 2.89c.3424865.6894304 1.0502675 1.121099 1.82 1.11h10.54c.9686161.0185624 1.811263-.6597685 2-1.61l2.24-11.39h3.58c.2954177.0038102.5774004-.1232063.7703064-.3469772.192906-.223771.2769889-.5213907.2296936-.8130228l-2-12c-.09-.54 1.24.73-18.36-15.77l-2.45-12.22c-.1111022-.5525096-.4501545-1.03250253-.933747-1.32189647s-1.0668379-.36132718-1.606253-.19810353l-7.91 2.61c-.17-.07.21 0-5.93-.93-.45-.06.71-.5-14.91 6.84-.52727813.29212328-.89467629.80648071-1 1.4-3.16 20-3 18.68-2.91 19l2.22 8.36-3.58 1.46c-.38072104.1516273-.63039671.5201962-.63.93v4c0 .5522847.44771525 1 1 1zm34.15 9h-11.22l-1.86-24.19c7.36 4 7 3.92 7.69 3.92.5930048-.0044687 1.1534481-.2718698 1.53-.73l2.16-2.59 4.23 5.51c.1675885.2154245.2398422.4899885.2.76zm22.67-13h-2l1.09-5.45zm-16.93-20.67-.63-3.11 15.64 13.16-4.72 23.62h-10.54l-2.59-5.6 1.8-11.4c.1279888-.8105315-.081617-1.6381129-.58-2.29l-4.51-5.86 5.7-6.85c.3882866-.4631082.5463435-1.0769571.43-1.67zm-34-9.75 12.66-5.95-.3 4.27c-.0386599.55228473.3777153 1.03134001.93 1.06999994.5522847.03865996 1.03134-.37771521 1.07-.92999994l.34-4.89 4.5.69c.3977062.12072978.8222938.12072978 1.22 0l7.92-2.61 3.7 18.48-9.17 11-9.76-5.28 1-13.36c.0250086-.3572656-.1424814-.7007345-.4393782-.9010254s-.6780946-.2269747-1-.07-.5356132.4737598-.5606218.8310254l-.91 13.18-13.89 1.73zm-2.63 19.27 5.9-.74 1.77 11.54-2.34 2.35h-1.82zm-2.26 10.83 2.78-1.11.92 3.43h-3.7z" fill="#000"/></g></svg>