<svg height="512" viewBox="0 0 60 60" width="512" xmlns="http://www.w3.org/2000/svg"><g id="002---Tulip" fill="none"><g id="Icons" transform="translate(1 1)"><path id="Shape" d="m45.43 18.7-16.43 39.3c-2.18-5.22.69 1.64-16.43-39.3l15.68-17.84c.189833-.21525044.4629994-.33856217.75-.33856217s.560167.12331173.75.33856217z" fill="#bb193b"/><path id="Shape" d="m42.43 18.7-14.93 35.71-14.93-35.71 14.93-16.99z" fill="#ef314c"/><path id="Shape" d="m29 58-28.56-24.62c-.2908124-.2437299-.41862945-.6310543-.33-1l5.25-26.17c.08222107-.43124423.43609278-.75843219.872448-.80666092.43635523-.04822874.85313832.19378158 1.027552.59666092 7.08 16.92 2.3 5.51 21.74 52z" fill="#e91e63"/><path id="Shape" d="m57.56 33.38-28.56 24.62c15.7-37.53.05-.09 21.74-52 .1711301-.40286498.5843738-.64761917 1.0199066-.60406589s.7921272.36529129.8800934.79406589l5.25 26.22c.0765808.3594067-.0501301.73186-.33.97z" fill="#ad1457"/><path id="Shape" d="m54.56 33.38-23.87 20.62 19.31-46.14 4.92 24.57c.0617703.3585788-.076103.7224109-.36.95z" fill="#e91e63"/></g><g id="Layer_10" fill="#000" transform="translate(-1)"><path id="Shape" d="m30.35 59.76c.374224.3200877.925776.3200877 1.3 0l29-25c.2908124-.2437299.4186294-.6310543.33-1l-6-30c-.0879662-.4287746-.4445606-.75051261-.8800934-.79406589s-.8487765.20120091-1.0199066.60406589l-5.95 14.27-15.38-17.5c-.189833-.21525044-.4629994-.33856217-.75-.33856217s-.560167.12331173-.75.33856217l-15.38 17.5-5.95-14.23c-.16100195-.42111769-.5838851-.68242629-1.03253925-.63802822s-.81211946.3835224-.88746075.82802822l-6 30c-.08862945.3689457.0391876.7562701.33 1zm23.31-52.36 5.24 26.22-25.34 21.85zm-23.66-3.75v17.35c0 .5522847.4477153 1 1 1s1-.4477153 1-1v-17.35l14.27 16.24-15.27 36.52-15.27-36.52zm-21.66 3.75 20.1 48.07-25.34-21.85z"/><path id="Shape" d="m32 27v-2c0-.5522847-.4477153-1-1-1s-1 .4477153-1 1v2c0 .5522847.4477153 1 1 1s1-.4477153 1-1z"/></g></g></svg>