<svg height="512" viewBox="0 0 60 44" width="512" xmlns="http://www.w3.org/2000/svg"><g id="006---Boat" fill="none"><g id="Icons" transform="translate(1 1)"><path id="Shape" d="m42.75 20.17-13.75-20.17-13.75 20.17-15.25-10.17 10 32h38l10-32z" fill="#9fc9d3"/><path id="Shape" d="m29 29.33-19 12.67-10-32z" fill="#00bcd4"/><path id="Shape" d="m58 10-10 32-19-12.67z" fill="#00838f"/><path id="Shape" d="m54.21 12.53-8.69 27.81-16.52-11.01z" fill="#00bcd4"/><path id="Shape" d="m48 42h-38l19-12.67z" fill="#0377bc"/><path id="Shape" d="m43 42h-33l16.5-11z" fill="#02a9f4"/><path id="Shape" d="m29 0c-2.93 29.35-2.69 27.26-2.81 27.46l-10.94-7.29z" fill="#02a9f4"/><path id="Shape" d="m42.75 20.17-10.94 7.29c-.12-.2.12 1.92-2.81-27.46z" fill="#0377bc"/><path id="Shape" d="m39.75 20.71-8.14 5.42-2.03-20.34z" fill="#02a9f4"/><path id="Shape" d="m31.81 27.46-2.81 1.87-2.81-1.87c.12-.2-.12 1.92 2.81-27.46 2.93 29.35 2.69 27.26 2.81 27.46z" fill="#3f51b5"/></g><path id="Shape" d="m58.45 11.17-14.45 9.61-13.17-19.34c-.1857617-.27642946-.4969525-.44223661-.83-.44223661s-.6442383.16580715-.83.44223661l-13.17 19.34-14.45-9.61c-.35238444-.2279042-.80957876-.2115422-1.14477024.0409687-.33519149.2525109-.4770619.6874444-.35522976 1.0890313l10 32c.1305765.4152186.5147371.6982843.95.7h38c.4536001.0207659.8642525-.2666908 1-.7 1-3.27-3.72 11.82 10-32 .1490333-.4174391.0054905-.8831751-.3526779-1.1442914s-.8454883-.2552996-1.1973221.0142914zm-16.09 10.72-8.78 5.86-2.19-21.94zm-12.36-9.83 1.69 16.94-1.69 1.13-1.69-1.13zm-1.39-6.25-2.19 21.94-8.78-5.86zm-25.81 8.59 25.4 16.93-16.64 11.1zm11.5 28.6 15.7-10.46 15.7 10.46zm34.14-.57-16.64-11.1 25.4-16.93z" fill="#000" transform="translate(0 -1)"/></g></svg>