<svg height="512" viewBox="0 0 60 50" width="512" xmlns="http://www.w3.org/2000/svg"><g id="007---Swan" fill="none"><g id="Icons" transform="translate(1 1)"><path id="Shape" d="m17 11h-17l13-11z" fill="#00bcd4"/><path id="Shape" d="m17 11v37l-17-7 12-30z" fill="#02a9f4"/><path id="Shape" d="m46 48h-29v-14.17l15 4.17 7-10z" fill="#3f51b5"/><path id="Shape" d="m39 28-7 10-15-4.17v-5.83z" fill="#00bcd4"/><path id="Shape" d="m54 23-8 25-7-20h-22v-4.95l18-7.05z" fill="#0377bc"/><path id="Shape" d="m51 23-6.57 20.52-5.43-15.52h-22v-4.95l16.55-6.48z" fill="#02a9f4"/><path id="Shape" d="m58 10-4 13-10.74-3.96z" fill="#283593"/><path id="Shape" d="m54.3 12.27-2.99 9.74-8.05-2.97z" fill="#3f51b5"/></g><path id="Shape" d="m58.48 10.15-14.33 8.79-7.8-2.88c-.51-.19.83-.6-17.35 6.52v-10.58c0-.29.27.6-4.06-11.34-.11166-.30861322-.3676434-.5427929-.684952-.62661026-.3173086-.08381735-.6555473-.00660202-.905048.20661026l-13 11c-.31821168.2721225-.43320365.7136768-.28814676 1.1064462.1450569.3927695.51944719.653586.93814676.6535538h10.52l-11.45 28.63c-.1994086.5080407.04536025 1.0821349.55 1.29 18.14 7.48 17.08 7.08 17.38 7.08h29c.4536001.0207659.8642525-.2666908 1-.7 10.56-33 7.41-23 8-25l4-13c.1452261-.4106554.0079332-.8680773-.3394295-1.1308846-.3473626-.26280722-.8248816-.27053907-1.1805705-.0191154zm-54.75.85 9.82-8.31 3 8.31zm13.27 36.51-14.7-6.06 11.38-28.45h3.32zm2-17.51h19.08l-5.49 7.85-13.59-3.78zm0 18v-11.85l13.73 3.85c.4092956.1149055.8465008-.0415257 1.09-.39l5.88-8.4 5.89 16.79zm28-2.15-6-17.18c-.1465458-.4214069-.5545265-.6947539-1-.67h-21v-3.27l17-6.66 17.75 6.54zm7.35-23.15-7.81-2.88 10.73-6.58z" fill="#000"/></g></svg>