<svg height="512" viewBox="0 0 60 56" width="512" xmlns="http://www.w3.org/2000/svg"><g id="010---Dog" fill="none"><g id="Icons" transform="translate(1)"><path id="Shape" d="m30.89 20-4.89 35h-11.13c-.501932.0049401-.9297504-.3629837-1-.86l-4.72-34.07 3.85 5.29c.3461546.402396.8492203.6357018 1.38.64h11.24c.5307797-.0042982 1.0338454-.237604 1.38-.64z" fill="#91562d"/><path id="Shape" d="m51.12 30.8-3.12 24.2h-22c0-.11 4.89-34.87 4.89-35l2.3-3.17c.9 2.5.42 1.16 2.24 6.15 2.82-7.9 2.56-7.19 2.67-7.48 1.15 1.38-1.5-1.73 13.02 15.3z" fill="#825a2c"/><path id="Shape" d="m33.19 16.85-2.3 3.15-3.89 5.36c-.3461546.402396-.8492203.6357018-1.38.64h-11.24c-.5307797-.0042982-1.0338454-.237604-1.38-.64l-6.19-8.51 5.58-15.74c.12-.17-1.13-.11 15.14-.11.12.16-.33-1 5.66 15.85z" fill="#a0522d"/><path id="Shape" d="m12.57 1-8 22-4.45-12.47c-.31190823-.90167925.05652586-1.898126.88-2.38z" fill="#91562d"/><path id="Shape" d="m39.88 10.53c-2.78 7.76-.88 2.53-4.45 12.47-2.79-7.63-7.47-20.55-8-22l11.62 7.15c.8046704.49723815 1.150959 1.4902104.83 2.38z" fill="#6d4122"/><path id="Shape" d="m36.88 10.53-3 8.31-5.58-15.46 7.75 4.77c.8046704.49723815 1.150959 1.4902104.83 2.38z" fill="#91562d"/><path id="Shape" d="m22 19.53-1.24 2c-.1711944.2774859-.4739541.4464415-.8.4464415s-.6288056-.1689556-.8-.4464415l-1.24-2c-.1959922-.3131569-.203365-.7088598-.0191744-1.0291003.1841907-.3202405.5299353-.5128432.8991744-.5008997h2.4c.354905.0168048.6742421.2206642.8388742.5355233.1646322.314859.1498338.6934298-.0388742.9944767z" fill="#607d8b"/><path id="Shape" d="m58 34-10 21c1-7.63 1.16-8.94 4-31z" fill="#783e22"/><path id="Shape" d="m55 34-5.88 12.36 2.35-18.24z" fill="#a0522d"/></g><g id="Layer_10" fill="#000" transform="translate(-1 -1)"><path id="Shape" d="m5.63 24.34c.1435417.3954845.51927183.6588256.94.6588256s.7964583-.2633411.94-.6588256l1.59-4.34 1.09 1.5 4.81 34.64c.0702496.4970163.498068.8649401 1 .86h34c.3846594-.0010889.7345973-.2227162.9-.57l10-21c.1564448-.2938054.1564448-.6461946 0-.94l-6-10c-.217967-.3653727-.6432497-.5528293-1.059998-.4672269-.4167482.0856023-.7337056.425519-.790002.8472269l-.63 4.83-11.19-13.38 1.59-4.45c.4823648-1.3335055-.0348657-2.8226287-1.24-3.57-12.58-7.83-11.69-7.25-12.05-7.3h-15c-.42 0 .57-.58-12.15 7.3-1.19020604.75938594-1.68986891 2.245883-1.2 3.57zm21.5 30.66h-4.13v-14c0-.5522847-.4477153-1-1-1s-1 .4477153-1 1v14h-4.13l-4.18-30.12 1.56 2.12c.5328324.6245562 1.3091103.9890059 2.13 1h11.24c.8404135-.000258 1.6393843-.3650849 2.19-1l1.54-2.12zm27.49-27 4.25 7.07-7.08 14.84zm-2.62 4.41-2.88 22.59h-20l4.7-33.6 1-1.45 1.59 4.39c.1435417.3954845.5192718.6588256.94.6588256s.7964583-.2633411.94-.6588256l2.08-5.83zm-11.48-22.41c.4042088.2470995.5795585.7439238.42 1.19l-3.52 9.86-6.06-16.69zm-25.25-7h13.46l5.34 14.69-5.82 8c-.1565665.1866183-.3864346.2960794-.63.3-12.09 0-11.51.1-11.81-.23l-5.88-8.07zm-11.8 7 9.18-5.64-6.07 16.69-3.52-9.86c-.16140839-.4437171.00953492-.9398696.41-1.19z"/><path id="Shape" d="m20.35 23.05c.3728696.5443277.9902088.8697345 1.65.8697345s1.2771304-.3254068 1.65-.8697345l1.24-2c.3794685-.6151442.3975188-1.3871676.0472141-2.0193744-.3503047-.6322067-1.0144559-1.0262234-1.7372141-1.0306256h-2.4c-.7259771.0021742-1.3937691.3975795-1.7447483 1.0330802-.3509791.6355007-.3300246 1.4112922.0547483 2.0269198zm2.85-3.05-1.15 2-1.25-2z"/><path id="Shape" d="m22 35c-.5522847 0-1 .4477153-1 1v1c0 .5522847.4477153 1 1 1s1-.4477153 1-1v-1c0-.5522847-.4477153-1-1-1z"/></g></g></svg>