<svg height="512" viewBox="0 0 60 44" width="512" xmlns="http://www.w3.org/2000/svg"><g id="012---Butterfly" fill="none"><g id="Icons" transform="translate(1 1)"><path id="Shape" d="m22.74 30.58-4.74 10.42-9 1-3-7 3.53-8.82z" fill="#673ab7"/><path id="Shape" d="m49 42-9-1-4.74-10.42 13.21-4.4 3.53 8.82z" fill="#4527a0"/><path id="Shape" d="m48.84 35.38c-2.74 6.39-2.57 6.08-2.8 6.29l-6.04-.67-4.74-10.42 10.57-3.52 3 7.56c.1032308.2421434.106824.5152243.01.76z" fill="#673ab7"/><path id="Shape" d="m24 17-4-8-20-9v23l24 8z" fill="#9d27b0"/><path id="Shape" d="m58 0v23l-24.02 8v-14l4.02-8z" fill="#6a1b9a"/><path id="Shape" d="m55.0000034 1.35-.0000034 20.93c.0011098.4299159-.2726883.8124279-.68.95l-20.32 6.77v-13l4-8z" fill="#9d27b0"/><path id="Shape" d="m34 16v18c-4.7 3.76-3.69 3-5 4-1.28-1-.21-.16-5-4v-18c4.7-3.76 3.69-3 5-4 1.28 1 .21.17 5 4z" fill="#3f51b5"/></g><path id="Shape" d="m1.68 26 8.53 2.84-3.14 7.79c-.10001802.2434614-.10001802.5165386 0 .76l3 7c.1701412.3937818.572479.6351845 1 .6l9-1c.3502316-.0388764.6541503-.2592175.8-.58l4.09-9v1.59c.0014028.304272.1412626.5913526.38.78l5 4c.3634448.2871976.8765552.2871976 1.24 0l5-4c.253811-.1804229.4090841-.4687874.42-.78v-1.58l4.09 9c.1458497.3207825.4497684.5411236.8.58l9 1c.427521.0351845.8298588-.2062182 1-.6l3-7c.100018-.2434614.100018-.5165386 0-.76l-3.14-7.84 8.57-2.8c.4253709-.1429939.7033915-.5518476.68-1v-23c-.0007064-.33888767-.1729981-.65435802-.4577352-.83812452-.2847371-.18376651-.6431699-.21082046-.9522648-.07187548-21.76 9.78-20.25 9-20.48 9.46l-3.11 6.18-4.4-3.51c-.3634448-.2871976-.8765552-.2871976-1.24 0l-4.36 3.51c-3.3-6.61-3.1-6.43-3.57-6.64l-20-9c-.31097832-.14812388-.67629916-.12577352-.96690129.05915511-.29060214.18492863-.46557306.5064003-.46309871.85084489v23c-.02339147.4481524.25462906.8570061.68 1zm51.24 11-2.55 5.93-7.7-.85-4-8.89 11.26-3.76zm-15.92-17.76 3.74-7.47 18.26-8.22v20.73l-22 7.33zm-10-.76 3-2.4v12.92c0 .5522847.4477153 1 1 1s1-.4477153 1-1v-12.92l3 2.4v17l-3 2.4v-4.88c0-.5522847-.4477153-1-1-1s-1 .4477153-1 1v4.92l-3-2.4zm-7.67 23.59-7.7.85-2.55-5.92 3-7.57 11.26 3.76zm-16.33-38.52 18.26 8.22 3.74 7.47v12.37l-22-7.33z" fill="#000" transform="translate(-1 -1)"/></g></svg>