<svg height="512" viewBox="0 0 60 42" width="512" xmlns="http://www.w3.org/2000/svg"><g id="013---Mouse" fill="none"><g id="Icons" transform="translate(1 1)"><path id="Shape" d="m58 27-15 12c-1.7-6.09-1.55-5.47-1.55-5.57z" fill="#ef314c"/><path id="Shape" d="m18.52 9.75-.52.25-5 12v16l-4-1-9-37z" fill="#f5f5f5"/><path id="Shape" d="m5.09 2.68c-.84299161 1.42018892-2.13914464 2.51557912-3.68 3.11l-1.41-5.79z" fill="#ef314c"/><path id="Shape" d="m43 39h-29c-.5522847 0-1-.4477153-1-1v-16l5-12 19.63 10.8c.235607.1304095.4086601.3503311.48.61z" fill="#545c60"/><path id="Shape" d="m40 39h-26c-.5522847 0-1-.4477153-1-1v-16l4.44-10.66 17.19 9.46c.235607.1304095.4086601.3503311.48.61z" fill="#7f8e94"/><path id="Shape" d="m13 22 7-2-2-10z" fill="#9e9e9e"/><path id="Shape" d="m40 39h-26c-.5522847 0-1-.4477153-1-1v-16l4.44-10.66 17.19 9.46c.235607.1304095.4086601.3503311.48.61z" fill="#7f8e94"/><path id="Shape" d="m13 22 7-2-2-10z" fill="#9e9e9e"/><path id="Shape" d="m30 10c-1 7-10 10-10 10-.33-1.66 0 0-2-10 1.5998781-.83395629 3.3264028-1.39820216 5.11-1.67 4.59-.63 6.89 1.67 6.89 1.67z" fill="#bb193b"/><path id="Shape" d="m27 10c-.64 4.46-4.52 7.29-7.25 8.76l-1.75-8.76c1.5998781-.83395629 3.3264028-1.39820216 5.11-1.67 1.434717.1542823 2.7899761.73610305 3.89 1.67z" fill="#ef314c"/></g><path id="Shape" d="m10 39.24c.0892048.3598375.3701625.6407952.73.73l3.42.86c.3295821.7227969 1.0556982 1.1820163 1.85 1.17 31.53 0 29.17.11 29.61-.24l15-12c.391992-.3088724.4962506-.8594723.2443195-1.2902746-.2519312-.4308022-.7829206-.609912-1.2443195-.4197254l-15.52 6-3.09-11.32c-.0713399-.2596689-.244393-.4795905-.48-.61l-9.52-5.22c1.0554306-1.3937605 1.7432103-3.0306761 2-4.76.0457305-.3116176-.0580185-.6265699-.28-.85-.18-.17-4.27-4.09-12.14-.64l-18.11-9.53c-.34962322-.2036332-.78750232-.17652196-1.10933569.06868441-.32183336.24520637-.46419547.66018367-.36066431 1.05131559zm44.25-7-8.72 7-.87-3.24zm-15.1-8.57 4.53 16.33h-27.68v-15.25l6.27-1.75c2.7484743-.96893 5.260346-2.5094538 7.37-4.52zm-8.24-11.27c-1 4.61-6 7.26-8.17 8.22l-1.61-8c5.52-2.55 8.73-.95 9.78-.22zm-10.07 8.89-4.12 1.18 2.94-7.06zm-13.45-15.29 11.51 6-4.82 11.62c-.11.26-.08-.14-.08 15.1l-2.17-.54-7.25-29.8c1.10363466-.5720614 2.06410967-1.3855598 2.81-2.38zm-1.8-1c-.42408319.52779829-.93060071.98366406-1.5 1.35l-.59-2.43z" fill="#000" transform="translate(-1 -1)"/></g></svg>