<svg height="512" viewBox="0 0 60 57" width="512" xmlns="http://www.w3.org/2000/svg"><g id="017---Turtle" fill="none"><g id="Icons" transform="translate(1 1)"><path id="Shape" d="m36 7h-14l1.59-5.55c.2452099-.85729669 1.0283253-1.44871195 1.92-1.45h7c.8916747.00128805 1.6747901.59270331 1.92 1.45z" fill="#549414"/><path id="Shape" d="m33 7h-11l1.59-5.55c.2452099-.85729669 1.0283253-1.44871195 1.92-1.45h4c.8916747.00128805 1.6747901.59270331 1.92 1.45z" fill="#60a917"/><path id="Shape" d="m18 7-5.78 11.56-12.22 2.44z" fill="#60a917"/><path id="Shape" d="m58 21-12.22-2.44-5.78-11.56z" fill="#549414"/><path id="Shape" d="m52.23 19.85-6.45-1.29-3.05-6.1z" fill="#60a917"/><path id="Shape" d="m41.05 47.42 10.95 7.58h-11.76c-.758944-.0004027-1.45227-.4303423-1.79-1.11l-.74-1.46h-17.42l-.74 1.46c-.33773.6796577-1.031056 1.1095973-1.79 1.11h-11.76l11-7.58z" fill="#60a917"/><path id="Shape" d="m51.36 32-14.77 22.11c-.370262.554962-.9928604.8887648-1.66.89h-11.86c-.6671396-.0012352-1.289738-.335038-1.66-.89l-14.77-22.11c-.40157285-.5934518-.45497849-1.3563896-.14-2 .1-.1 4-7.93 11.5-23h22c7.54 15.07 11.4 22.9 11.5 23 .3149785.6436104.2615728 1.4065482-.14 2z" fill="#6d4122"/><path id="Shape" d="m48.36 32-14.77 22.11c-.370262.554962-.9928604.8887648-1.66.89h-8.86c-.6671396-.0012352-1.289738-.335038-1.66-.89l-14.77-22.11c-.40157285-.5934518-.45497849-1.3563896-.14-2 .1-.1 4-7.93 11.5-23h19c7.54 15.07 11.4 22.9 11.5 23 .3149785.6436104.2615728 1.4065482-.14 2z" fill="#91562d"/></g><path id="Shape" d="m42.61 7.21c-.36-.28-.41-.21-3.86-.21l-1.37-4.82c-.3669815-1.2914926-1.5473813-2.18189802-2.89-2.18h-7c-1.3426187-.00189802-2.5230185.8885074-2.89 2.18l-1.35 4.82c-1.158967-.06923226-2.321033-.06923226-3.48 0-.34.08.8-.76-18.38 14.18-.3645094.2537192-.51800918.7174447-.37687292 1.1385398s.54308815.6986528.98687292.6814602c.15 0-.49.12 10.41-2.06l-4.78 9.57c-.48133744.9601253-.41268599 2.1043161.18 3l9.76 14.64-10.14 7c-.38763294.2392084-.56463262.7101487-.43051128 1.1454548s.54546986.7249716 1.00051128.7045452h11.76c1.1057812-.0029506 2.1202849-.6139585 2.64-1.59l.17.25c.5562116.8372929 1.4947982 1.3403753 2.5 1.34h11.86c1.0052018.0003753 1.9437884-.5027071 2.5-1.34l.17-.25c.5197151.9760415 1.5342188 1.5870494 2.64 1.59h11.76c.4362819-.0010294.8215408-.2847832.9519337-.7011252.1303928-.416342-.0241803-.869164-.3819337-1.1188748l-10.14-7 9.76-14.64c.5959039-.8938517.6683737-2.0381107.19-3l-4.79-9.57 10.21 2.03c.4547974.0909787.9124622-.1427045 1.1054638-.5644488.1930016-.4217442.0706788-.9208454-.2954638-1.2055512zm-16.06-4.48c.1245106-.44523752.5379962-.747082 1-.73h7c.4620038-.017082.8754894.28476248 1 .73l1.12 4.27h-11.34zm-20.55 17.46 11.13-8.69-3.59 7.18zm14.7 34.25c-.1682534.343391-.5176049.5607653-.9.56l-8.6.000002 7.48-5.180002 2.45 3.68zm30.1.560002-8.56-.000002c-.3823951.0007653-.7317466-.216609-.9-.56l-.47-.94 2.45-3.68zm1.58-24.000002h-30.38c-.5522847 0-1 .4477153-1 1s.4477153 1 1 1h30.13l-14.37 21.55c-.1839835.2793852-.4954809.4482694-.83.45h-11.86c-.3345191-.0017306-.6460165-.1706148-.83-.45-22.38-33.55-10.88-16.31-14.37-21.55h8.13c.5522847 0 1-.4477153 1-1s-.4477153-1-1-1h-8.38l11-22h20.76zm-3.92-12.32-3.59-7.18 11.13 8.69z" fill="#000" transform="translate(-1)"/></g></svg>