<svg height="512" viewBox="0 0 59 61" width="512" xmlns="http://www.w3.org/2000/svg"><g id="018---Rabbit" fill="none"><g id="Icons" transform="translate(1 1)"><path id="Shape" d="m34 2-15.24 10.76-8.76-3.76 16.82-8.91c.26-.09-.6-.31 7.18 1.91z" fill="#bb193b"/><path id="Shape" d="m30 1-14.61 10.31-5.39-2.31 16.82-8.91z" fill="#ef314c"/><path id="Shape" d="m24 15-7.49 17.86-3.51-6.86-11.5-5.66c-.57539247-.3063996-.96535224-.8739966-1.04498368-1.521002s.1610591-1.2922209.64498368-1.728998l8.9-8.09z" fill="#9e9e9e"/><path id="Shape" d="m24 42-13 4 13-31z" fill="#7f8e94"/><path id="Shape" d="m36 58h-18l9.9-10.8z" fill="#7f8e94"/><path id="Shape" d="m57 36v6l-9 3 .65-10.32 3.35-2.68z" fill="#cfd8dc"/><path id="Shape" d="m54 36v6l-5.94 1.98.59-9.3 1.85-1.48z" fill="#f5f5f5"/><path id="Shape" d="m50.55 45.39-14.55 12.61-12-16v-27l21.49 7.81c.3186304.1174602.5558753.3885972.63.72l4.75 20.89c.0789596.3575341-.0437949.7296337-.32.97z" fill="#707070"/><path id="Shape" d="m47.55 45.39-12.73 11-10.82-14.39v-25.91l18.49 6.72c.3186304.1174602.5558753.3885972.63.72l4.75 20.89c.0789596.3575341-.0437949.7296337-.32.97z" fill="#9e9e9e"/></g><path id="Shape" d="m53.63 33.22c-.3653328-.2925003-.8846672-.2925003-1.25 0l-2.1 1.68-2.18-9.59c-.1501891-.6651058-.6288773-1.2078704-1.27-1.44-25-9.08-20.22-7.27-25.26-9.43l14-9.62c.3413522-.21411747.5208446-.61219263.4553088-1.00977618-.0655357-.39758355-.3632945-.71699095-.7553088-.81022382l-7-2c-.2477715-.06954494-.5128162-.04089146-.74.08-13.16 7-16.78 8.87-17 9s.64-.65-9.07 8.2c-.73000045.6591959-1.09049793 1.6343618-.96481711 2.6098844.12568083.9755226.7215736 1.8274726 1.59481711 2.2801156l11.2 5.51 3.15 6.15-5.36 12.78c-.1307452.3086973-.0981074.6623717.0869231.9419286s.4978333.4477983.8330769.4480714c.22 0-.57.22 12.62-3.84l3 4.05-9.35 10.11c-.2699902.2911137-.342181.7143824-.1839495 1.0785316.1582315.3641493.5169101.600195.9139495.6014684 19.59 0 18.25.11 18.66-.24l14.54-12.61c.518157-.4568171.7639011-1.1486814.65-1.83l5.39-1.32c.4571833-.1128155.7737136-.5293028.76-1v-6c.0010289-.3025884-.1350085-.5893699-.37-.78zm-25.52-30.15 4.57 1.31-13.28 9.13-6.08-2.6zm-12.89 25.12 3.49-3.48c.3921222-.3921222.3921222-1.0278778 0-1.42s-1.0278778-.3921222-1.42 0l-3.49 3.5-10.8-5.33c-.29108117-.150881-.48971209-.4348643-.5316057-.7600385s.07827222-.6502295.3216057-.8699615l8.43-7.66 12.49 5.36-6.27 15zm8.78 15.07-10.25 3.16 10.25-24.42zm-2.71 15.74 7.59-8.16 6.12 8.16zm15.87-.46-11.16-14.87v-25.24l20.15 7.32 4.74 20.89zm19.84-15.32-4.57 1.14-1.66-7.29 2.23-1.79 4 3.2z" fill="#000" transform="translate(0 -1)"/></g></svg>