<svg height="512" viewBox="0 0 61 61" width="512" xmlns="http://www.w3.org/2000/svg"><g id="020---Heart" fill="none"><g id="Icons" transform="translate(1 2)"><path id="Shape" d="m58 22-28.22 35c-.1897968.2365713-.4767035.3742205-.78.3742205s-.5902032-.1376492-.78-.3742205l-28.22-35 29-13c35.35 15.84 18.36 8.22 29 13z" fill="#bb193b"/><path id="Shape" d="m55.35 20.81-28.25 34.83-27.1-33.64 29-13c0-.11-1.93-.93 26.35 11.81z" fill="#ef314c"/><path id="Shape" d="m29 9-14.23 6.38-5.77-15.38h12z" fill="#ef314c"/><path id="Shape" d="m14.77 15.38-14.77 6.62v-13l9-9z" fill="#e91e63"/><path id="Shape" d="m50 0-5.91 15.76-15.09-6.76 8-9z" fill="#ef314c"/><path id="Shape" d="m58 9v13l-13.91-6.24c5.79-15.43 4.73-12.63 5.91-15.76z" fill="#ad1457"/><path id="Shape" d="m55 9v11.65l-10.91-4.89 5.02-13.39z" fill="#e91e63"/></g><g id="Layer_10" fill="#000"><path id="Shape" d="m59.75 10.34-8-9c-.2052987-.19348733-.4691763-.31311186-.75-.34h-13c-.2872272.00036372-.5604302.12421575-.75.34l-7.25 8.15-7.25-8.15c-.1895698-.21578425-.4627728-.33963628-.75-.34-13.37 0-12.08-.13-12.71.29l-9 9c-.18718651.1887188-.29153676.444197-.29.71v13c.14.69-2.2-2.39 29.22 36.63.1897968.2365713.4767035.3742205.78.3742205s.5902032-.1376492.78-.3742205c31.51-39.14 29.07-35.89 29.22-36.63 0-14.11.11-13.26-.25-13.66zm-21.3-7.34h11.11l-5 13.42-12.91-5.77zm-16.9 0 6.8 7.65-12.02 5.35-4.89-13zm-19.55 8.41 7.61-7.6 4.89 13-12.5 5.65zm29 45.75v-27.16c0-.5522847-.4477153-1-1-1s-1 .4477153-1 1v27.16l-26.41-32.78 27.41-12.28 27.41 12.28zm27-34.7-11.65-5.22 5-13.34 6.65 7.48z"/><path id="Shape" d="m29 25v1c0 .5522847.4477153 1 1 1s1-.4477153 1-1v-1c0-.5522847-.4477153-1-1-1s-1 .4477153-1 1z"/></g></g></svg>